    <svg
      width="400"
      height="400"
      viewBox="0 0 400 400"
      fill="none"
      xmlns="http://www.w3.org/2000/svg"
    >
      {/* Center rosette - spiral design */}
      <circle cx="200" cy="200" r="8" fill="#FFC107" />
      <path d="M 200 180 Q 220 180 220 200 Q 220 220 200 220 Q 180 220 180 200 Q 180 180 200 180" fill="#FF69B4" />
      <circle cx="188" cy="188" r="10" fill="#FFB6C1" />
      <circle cx="212" cy="188" r="10" fill="#FFB6C1" />
      <circle cx="212" cy="212" r="10" fill="#FFB6C1" />
      <circle cx="188" cy="212" r="10" fill="#FFB6C1" />
      <circle cx="200" cy="182" r="9" fill="#FF69B4" />
      <circle cx="218" cy="200" r="9" fill="#FF69B4" />
      <circle cx="200" cy="218" r="9" fill="#FF69B4" />
      <circle cx="182" cy="200" r="9" fill="#FF69B4" />
      
      {/* Top rosette */}
      <circle cx="200" cy="110" r="6" fill="#FFC107" />
      <circle cx="194" cy="104" r="7" fill="#E91E63" />
      <circle cx="206" cy="104" r="7" fill="#E91E63" />
      <circle cx="206" cy="116" r="7" fill="#E91E63" />
      <circle cx="194" cy="116" r="7" fill="#E91E63" />
      <circle cx="200" cy="100" r="6" fill="#FF1744" />
      <circle cx="212" cy="110" r="6" fill="#FF1744" />
      <circle cx="200" cy="120" r="6" fill="#FF1744" />
      <circle cx="188" cy="110" r="6" fill="#FF1744" />
      
      {/* Top right rosette */}
      <circle cx="280" cy="140" r="5" fill="#FFC107" />
      <circle cx="275" cy="136" r="6" fill="#9C27B0" />
      <circle cx="285" cy="136" r="6" fill="#9C27B0" />
      <circle cx="285" cy="144" r="6" fill="#9C27B0" />
      <circle cx="275" cy="144" r="6" fill="#9C27B0" />
      
      {/* Top left rosette */}
      <circle cx="120" cy="140" r="5" fill="#FFC107" />
      <circle cx="115" cy="136" r="6" fill="#00BCD4" />
      <circle cx="125" cy="136" r="6" fill="#00BCD4" />
      <circle cx="125" cy="144" r="6" fill="#00BCD4" />
      <circle cx="115" cy="144" r="6" fill="#00BCD4" />
      
      {/* Right rosette */}
      <circle cx="280" cy="200" r="5" fill="#FFC107" />
      <circle cx="275" cy="196" r="6" fill="#FF69B4" />
      <circle cx="285" cy="196" r="6" fill="#FF69B4" />
      <circle cx="285" cy="204" r="6" fill="#FF69B4" />
      <circle cx="275" cy="204" r="6" fill="#FF69B4" />
      
      {/* Left rosette */}
      <circle cx="120" cy="200" r="5" fill="#FFC107" />
      <circle cx="115" cy="196" r="6" fill="#E91E63" />
      <circle cx="125" cy="196" r="6" fill="#E91E63" />
      <circle cx="125" cy="204" r="6" fill="#E91E63" />
      <circle cx="115" cy="204" r="6" fill="#E91E63" />
      
      {/* Bottom right rosette */}
      <circle cx="280" cy="260" r="5" fill="#FFC107" />
      <circle cx="275" cy="256" r="6" fill="#9C27B0" />
      <circle cx="285" cy="256" r="6" fill="#9C27B0" />
      <circle cx="285" cy="264" r="6" fill="#9C27B0" />
      <circle cx="275" cy="264" r="6" fill="#9C27B0" />
      
      {/* Bottom left rosette */}
      <circle cx="120" cy="260" r="5" fill="#FFC107" />
      <circle cx="115" cy="256" r="6" fill="#00BCD4" />
      <circle cx="125" cy="256" r="6" fill="#00BCD4" />
      <circle cx="125" cy="264" r="6" fill="#00BCD4" />
      <circle cx="115" cy="264" r="6" fill="#00BCD4" />
      
      {/* Bottom rosette */}
      <circle cx="200" cy="290" r="6" fill="#FFC107" />
      <circle cx="194" cy="284" r="7" fill="#FF69B4" />
      <circle cx="206" cy="284" r="7" fill="#FF69B4" />
      <circle cx="206" cy="296" r="7" fill="#FF69B4" />
      <circle cx="194" cy="296" r="7" fill="#FF69B4" />
      <circle cx="200" cy="280" r="6" fill="#FFB6C1" />
      <circle cx="212" cy="290" r="6" fill="#FFB6C1" />
      <circle cx="200" cy="300" r="6" fill="#FFB6C1" />
      <circle cx="188" cy="290" r="6" fill="#FFB6C1" />
    </svg>
