<svg
      width="400"
      height="400"
      viewBox="0 0 400 400"
      fill="none"
      xmlns="http://www.w3.org/2000/svg"
    >
      {/* Polka dot pattern - constrained to fit heart shape */}
      {/* Row 1 - upper area */}
      <circle cx="180" cy="110" r="10" fill="#FF6B9D" />
      <circle cx="220" cy="110" r="10" fill="#FF6B9D" />
      
      {/* Row 2 */}
      <circle cx="140" cy="145" r="10" fill="#FFB3D9" />
      <circle cx="200" cy="145" r="10" fill="#FF6B9D" />
      <circle cx="260" cy="145" r="10" fill="#FFB3D9" />
      
      {/* Row 3 */}
      <circle cx="110" cy="180" r="10" fill="#FF6B9D" />
      <circle cx="170" cy="180" r="10" fill="#FFB3D9" />
      <circle cx="230" cy="180" r="10" fill="#FFB3D9" />
      <circle cx="290" cy="180" r="10" fill="#FF6B9D" />
      
      {/* Row 4 - widest */}
      <circle cx="100" cy="210" r="10" fill="#FFB3D9" />
      <circle cx="150" cy="210" r="10" fill="#FF6B9D" />
      <circle cx="200" cy="210" r="10" fill="#FFB3D9" />
      <circle cx="250" cy="210" r="10" fill="#FF6B9D" />
      <circle cx="300" cy="210" r="10" fill="#FFB3D9" />
      
      {/* Row 5 */}
      <circle cx="120" cy="245" r="10" fill="#FF6B9D" />
      <circle cx="175" cy="245" r="10" fill="#FFB3D9" />
      <circle cx="225" cy="245" r="10" fill="#FFB3D9" />
      <circle cx="280" cy="245" r="10" fill="#FF6B9D" />
      
      {/* Row 6 - lower area */}
      <circle cx="155" cy="275" r="10" fill="#FFB3D9" />
      <circle cx="200" cy="275" r="10" fill="#FF6B9D" />
      <circle cx="245" cy="275" r="10" fill="#FFB3D9" />
      
      {/* Row 7 - bottom */}
      <circle cx="180" cy="305" r="10" fill="#FF6B9D" />
      <circle cx="220" cy="305" r="10" fill="#FF6B9D" />
    </svg>
