<svg
      width="400"
      height="400"
      viewBox="0 0 400 400"
      fill="none"
      xmlns="http://www.w3.org/2000/svg"
    >
      {/* Small dots distributed evenly */}
      <circle cx="120" cy="100" r="4" fill="#FF6B6B" />
      <circle cx="180" cy="80" r="4" fill="#4ECDC4" />
      <circle cx="250" cy="90" r="4" fill="#FFE66D" />
      <circle cx="290" cy="120" r="4" fill="#FF6B6B" />
      <circle cx="100" cy="150" r="4" fill="#95E1D3" />
      <circle cx="160" cy="140" r="4" fill="#FFE66D" />
      <circle cx="220" cy="130" r="4" fill="#FF6B6B" />
      <circle cx="280" cy="160" r="4" fill="#4ECDC4" />
      <circle cx="90" cy="200" r="4" fill="#4ECDC4" />
      <circle cx="140" cy="190" r="4" fill="#FF6B6B" />
      <circle cx="200" cy="200" r="4" fill="#95E1D3" />
      <circle cx="260" cy="210" r="4" fill="#FFE66D" />
      <circle cx="310" cy="190" r="4" fill="#FF6B6B" />
      <circle cx="110" cy="250" r="4" fill="#FFE66D" />
      <circle cx="170" cy="260" r="4" fill="#4ECDC4" />
      <circle cx="230" cy="250" r="4" fill="#FF6B6B" />
      <circle cx="290" cy="240" r="4" fill="#95E1D3" />
      <circle cx="130" cy="300" r="4" fill="#4ECDC4" />
      <circle cx="190" cy="290" r="4" fill="#FFE66D" />
      <circle cx="250" cy="300" r="4" fill="#FF6B6B" />
      
      {/* Small lines distributed evenly */}
      <rect x="145" y="115" width="3" height="12" fill="#4ECDC4" transform="rotate(25 146.5 121)" />
      <rect x="205" y="165" width="3" height="12" fill="#FFE66D" transform="rotate(-30 206.5 171)" />
      <rect x="125" cy="220" width="3" height="12" fill="#FF6B6B" transform="rotate(45 126.5 226)" />
      <rect x="245" y="175" width="3" height="12" fill="#95E1D3" transform="rotate(-15 246.5 181)" />
      <rect x="185" y="235" width="3" height="12" fill="#4ECDC4" transform="rotate(60 186.5 241)" />
      <rect x="155" y="275" width="3" height="12" fill="#FFE66D" transform="rotate(-45 156.5 281)" />
      <rect x="265" y="220" width="3" height="12" fill="#FF6B6B" transform="rotate(20 266.5 226)" />
      <rect x="105" y="180" width="3" height="12" fill="#95E1D3" transform="rotate(-50 106.5 186)" />
    </svg>
