 <svg
      width="400"
      height="400"
      viewBox="0 0 400 400"
      fill="none"
      xmlns="http://www.w3.org/2000/svg"
    >
      {/* Large stars */}
      <path d="M 200 100 L 210 130 L 242 130 L 216 148 L 226 178 L 200 160 L 174 178 L 184 148 L 158 130 L 190 130 Z" fill="#FFD700" />
      <path d="M 120 200 L 128 222 L 152 222 L 132 236 L 140 258 L 120 244 L 100 258 L 108 236 L 88 222 L 112 222 Z" fill="#FF69B4" />
      <path d="M 280 200 L 288 222 L 312 222 L 292 236 L 300 258 L 280 244 L 260 258 L 268 236 L 248 222 L 272 222 Z" fill="#00BCD4" />
      <path d="M 200 300 L 210 330 L 242 330 L 216 348 L 226 378 L 200 360 L 174 378 L 184 348 L 158 330 L 190 330 Z" fill="#9C27B0" />
      
      {/* Medium stars */}
      <path d="M 150 140 L 156 156 L 173 156 L 159 166 L 165 182 L 150 172 L 135 182 L 141 166 L 127 156 L 144 156 Z" fill="#4CAF50" />
      <path d="M 250 140 L 256 156 L 273 156 L 259 166 L 265 182 L 250 172 L 235 182 L 241 166 L 227 156 L 244 156 Z" fill="#FF5722" />
      <path d="M 150 260 L 156 276 L 173 276 L 159 286 L 165 302 L 150 292 L 135 302 L 141 286 L 127 276 L 144 276 Z" fill="#FFD700" />
      <path d="M 250 260 L 256 276 L 273 276 L 259 286 L 265 302 L 250 292 L 235 302 L 241 286 L 227 276 L 244 276 Z" fill="#00BCD4" />
      
      {/* Small stars */}
      <path d="M 90 150 L 94 160 L 105 160 L 96 166 L 100 176 L 90 170 L 80 176 L 84 166 L 75 160 L 86 160 Z" fill="#E91E63" />
      <path d="M 310 150 L 314 160 L 325 160 L 316 166 L 320 176 L 310 170 L 300 176 L 304 166 L 295 160 L 306 160 Z" fill="#9C27B0" />
      <path d="M 90 250 L 94 260 L 105 260 L 96 266 L 100 276 L 90 270 L 80 276 L 84 266 L 75 260 L 86 260 Z" fill="#4CAF50" />
      <path d="M 310 250 L 314 260 L 325 260 L 316 266 L 320 276 L 310 270 L 300 276 L 304 266 L 295 260 L 306 260 Z" fill="#FF69B4" />
      
      {/* Tiny accent stars */}
      <path d="M 180 180 L 182 186 L 189 186 L 183 190 L 185 196 L 180 192 L 175 196 L 177 190 L 171 186 L 178 186 Z" fill="#FFD700" />
      <path d="M 220 220 L 222 226 L 229 226 L 223 230 L 225 236 L 220 232 L 215 236 L 217 230 L 211 226 L 218 226 Z" fill="#FF5722" />
    </svg>
